<svg width="491" height="223" viewBox="0 0 491 223" fill="none" xmlns="http://www.w3.org/2000/svg">
<rect x="50" y="60" width="112" height="32" rx="12" fill="#FF6542" fill-opacity="0.1"/>
<rect x="50" y="60" width="112" height="32" rx="12" stroke="#FF6542" stroke-width="2"/>
<text fill="#2F2A53" style="white-space: pre" xml:space="preserve" font-family="Inter" font-size="12" font-weight="600" letter-spacing="0em"><tspan x="66.0098" y="80.3636">Component C</tspan></text>
<rect x="51" y="108" width="111" height="32" rx="12" fill="#FF6542" fill-opacity="0.1"/>
<text fill="#2F2A53" style="white-space: pre" xml:space="preserve" font-family="Inter" font-size="12" font-weight="500" letter-spacing="0em"><tspan x="67.1367" y="128.364">Component A</tspan></text>
<rect x="50.5" y="156" width="111" height="32" rx="12" fill="#FF6542" fill-opacity="0.1"/>
<text fill="#2F2A53" style="white-space: pre" xml:space="preserve" font-family="Inter" font-size="12" font-weight="500" letter-spacing="0em"><tspan x="66.9121" y="176.364">Component B</tspan></text>
<path d="M352 61.5H388C394.351 61.5 399.5 66.6487 399.5 73V77C399.5 83.3513 394.351 88.5 388 88.5H352C345.649 88.5 340.5 83.3513 340.5 77V73C340.5 66.6487 345.649 61.5 352 61.5Z" stroke="#817F7F" stroke-opacity="0.5"/>
<text fill="#2F2A53" style="white-space: pre" xml:space="preserve" font-family="Inter" font-size="11" letter-spacing="0em"><tspan x="352.001" y="79">V. 1.6.0</tspan></text>
<path d="M352 97.5H389C395.351 97.5 400.5 102.649 400.5 109V113C400.5 119.351 395.351 124.5 389 124.5H352C345.649 124.5 340.5 119.351 340.5 113V109C340.5 102.649 345.649 97.5 352 97.5Z" stroke="#817F7F" stroke-opacity="0.5"/>
<text fill="#2F2A53" style="white-space: pre" xml:space="preserve" font-family="Inter" font-size="11" letter-spacing="0em"><tspan x="352.168" y="115">V. 1.4.9</tspan></text>
<path d="M352 133.5H389C395.351 133.5 400.5 138.649 400.5 145V149C400.5 155.351 395.351 160.5 389 160.5H352C345.649 160.5 340.5 155.351 340.5 149V145C340.5 138.649 345.649 133.5 352 133.5Z" stroke="#817F7F" stroke-opacity="0.5"/>
<text fill="#2F2A53" style="white-space: pre" xml:space="preserve" font-family="Inter" font-size="11" letter-spacing="0em"><tspan x="352.297" y="151">V. 1.4.5</tspan></text>
<path d="M309.707 76.7071C310.098 76.3166 310.098 75.6834 309.707 75.2929L303.343 68.9289C302.953 68.5384 302.319 68.5384 301.929 68.9289C301.538 69.3195 301.538 69.9526 301.929 70.3431L307.586 76L301.929 81.6569C301.538 82.0474 301.538 82.6805 301.929 83.0711C302.319 83.4616 302.953 83.4616 303.343 83.0711L309.707 76.7071ZM162 76V77H309V76V75H162V76Z" fill="black"/>
<path d="M192.5 72C192.5 65.3726 197.873 60 204.5 60H247.5C254.127 60 259.5 65.3726 259.5 72V80C259.5 86.6274 254.127 92 247.5 92H204.5C197.873 92 192.5 86.6274 192.5 80V72Z" fill="white"/>
<path d="M192.5 72C192.5 65.3726 197.873 60 204.5 60H247.5C254.127 60 259.5 65.3726 259.5 72V80C259.5 86.6274 254.127 92 247.5 92H204.5C197.873 92 192.5 86.6274 192.5 80V72Z" fill="#8BA02C" fill-opacity="0.4"/>
<text fill="#2F2A53" style="white-space: pre" xml:space="preserve" font-family="Inter" font-size="12" font-weight="600" letter-spacing="0em"><tspan x="208.762" y="80.3636">TS 90</tspan></text>
<path d="M192.5 120C192.5 113.373 197.873 108 204.5 108H246.5C253.127 108 258.5 113.373 258.5 120V128C258.5 134.627 253.127 140 246.5 140H204.5C197.873 140 192.5 134.627 192.5 128V120Z" fill="#8BA02C" fill-opacity="0.2"/>
<text fill="#2F2A53" style="white-space: pre" xml:space="preserve" font-family="Inter" font-size="12" font-weight="500" letter-spacing="0em"><tspan x="208.561" y="128.364">TS 88</tspan></text>
<path d="M192.5 168C192.5 161.373 197.873 156 204.5 156H245.5C252.127 156 257.5 161.373 257.5 168V176C257.5 182.627 252.127 188 245.5 188H204.5C197.873 188 192.5 182.627 192.5 176V168Z" fill="#8BA02C" fill-opacity="0.2"/>
<text fill="#2F2A53" style="white-space: pre" xml:space="preserve" font-family="Inter" font-size="12" font-weight="500" letter-spacing="0em"><tspan x="208.506" y="176.364">TS 75</tspan></text>
<path d="M220.354 35.6464C220.158 35.4512 219.842 35.4512 219.646 35.6464L216.464 38.8284C216.269 39.0237 216.269 39.3403 216.464 39.5355C216.66 39.7308 216.976 39.7308 217.172 39.5355L220 36.7071L222.828 39.5355C223.024 39.7308 223.34 39.7308 223.536 39.5355C223.731 39.3403 223.731 39.0237 223.536 38.8284L220.354 35.6464ZM220 52L220.5 52L220.5 36L220 36L219.5 36L219.5 52L220 52Z" fill="black"/>
<path d="M364.354 32.6464C364.158 32.4512 363.842 32.4512 363.646 32.6464L360.464 35.8284C360.269 36.0237 360.269 36.3403 360.464 36.5355C360.66 36.7308 360.976 36.7308 361.172 36.5355L364 33.7071L366.828 36.5355C367.024 36.7308 367.34 36.7308 367.536 36.5355C367.731 36.3403 367.731 36.0237 367.536 35.8284L364.354 32.6464ZM364 49L364.5 49L364.5 48L364 48L363.5 48L363.5 49L364 49ZM364 46L364.5 46L364.5 44L364 44L363.5 44L363.5 46L364 46ZM364 42L364.5 42L364.5 40L364 40L363.5 40L363.5 42L364 42ZM364 38L364.5 38L364.5 36L364 36L363.5 36L363.5 38L364 38ZM364 34L364.5 34L364.5 33L364 33L363.5 33L363.5 34L364 34ZM364.354 32.6464C364.158 32.4512 363.842 32.4512 363.646 32.6464L360.464 35.8284C360.269 36.0237 360.269 36.3403 360.464 36.5355C360.66 36.7308 360.976 36.7308 361.172 36.5355L364 33.7071L366.828 36.5355C367.024 36.7308 367.34 36.7308 367.536 36.5355C367.731 36.3403 367.731 36.0237 367.536 35.8284L364.354 32.6464ZM364 49L364.5 49L364.5 48L364 48L363.5 48L363.5 49L364 49ZM364 46L364.5 46L364.5 44L364 44L363.5 44L363.5 46L364 46ZM364 42L364.5 42L364.5 40L364 40L363.5 40L363.5 42L364 42ZM364 38L364.5 38L364.5 36L364 36L363.5 36L363.5 38L364 38ZM364 34L364.5 34L364.5 33L364 33L363.5 33L363.5 34L364 34Z" fill="black"/>
<path d="M426.354 33.6464C426.158 33.4512 425.842 33.4512 425.646 33.6464L422.464 36.8284C422.269 37.0237 422.269 37.3403 422.464 37.5355C422.66 37.7308 422.976 37.7308 423.172 37.5355L426 34.7071L428.828 37.5355C429.024 37.7308 429.34 37.7308 429.536 37.5355C429.731 37.3403 429.731 37.0237 429.536 36.8284L426.354 33.6464ZM426 47L426.5 47L426.5 45.9167L426 45.9167L425.5 45.9167L425.5 47L426 47ZM426 43.75L426.5 43.75L426.5 41.5833L426 41.5833L425.5 41.5833L425.5 43.75L426 43.75ZM426 39.4167L426.5 39.4167L426.5 37.25L426 37.25L425.5 37.25L425.5 39.4167L426 39.4167ZM426 35.0833L426.5 35.0833L426.5 34L426 34L425.5 34L425.5 35.0833L426 35.0833ZM426.354 33.6464C426.158 33.4512 425.842 33.4512 425.646 33.6464L422.464 36.8284C422.269 37.0237 422.269 37.3403 422.464 37.5355C422.66 37.7308 422.976 37.7308 423.172 37.5355L426 34.7071L428.828 37.5355C429.024 37.7308 429.34 37.7308 429.536 37.5355C429.731 37.3403 429.731 37.0237 429.536 36.8284L426.354 33.6464ZM426 47L426.5 47L426.5 45.9167L426 45.9167L425.5 45.9167L425.5 47L426 47ZM426 43.75L426.5 43.75L426.5 41.5833L426 41.5833L425.5 41.5833L425.5 43.75L426 43.75ZM426 39.4167L426.5 39.4167L426.5 37.25L426 37.25L425.5 37.25L425.5 39.4167L426 39.4167ZM426 35.0833L426.5 35.0833L426.5 34L426 34L425.5 34L425.5 35.0833L426 35.0833Z" fill="black" fill-opacity="0.3"/>
<path d="M231.354 52.3536C231.158 52.5488 230.842 52.5488 230.646 52.3536L227.464 49.1716C227.269 48.9763 227.269 48.6597 227.464 48.4645C227.66 48.2692 227.976 48.2692 228.172 48.4645L231 51.2929L233.828 48.4645C234.024 48.2692 234.34 48.2692 234.536 48.4645C234.731 48.6597 234.731 48.9763 234.536 49.1716L231.354 52.3536ZM231 36L231.5 36L231.5 52L231 52L230.5 52L230.5 36L231 36Z" fill="black"/>
<path d="M375.354 49.3536C375.158 49.5488 374.842 49.5488 374.646 49.3536L371.464 46.1716C371.269 45.9763 371.269 45.6597 371.464 45.4645C371.66 45.2692 371.976 45.2692 372.172 45.4645L375 48.2929L377.828 45.4645C378.024 45.2692 378.34 45.2692 378.536 45.4645C378.731 45.6597 378.731 45.9763 378.536 46.1716L375.354 49.3536ZM375 33L375.5 33L375.5 34L375 34L374.5 34L374.5 33L375 33ZM375 36L375.5 36L375.5 38L375 38L374.5 38L374.5 36L375 36ZM375 40L375.5 40L375.5 42L375 42L374.5 42L374.5 40L375 40ZM375 44L375.5 44L375.5 46L375 46L374.5 46L374.5 44L375 44ZM375 48L375.5 48L375.5 49L375 49L374.5 49L374.5 48L375 48ZM375.354 49.3536C375.158 49.5488 374.842 49.5488 374.646 49.3536L371.464 46.1716C371.269 45.9763 371.269 45.6597 371.464 45.4645C371.66 45.2692 371.976 45.2692 372.172 45.4645L375 48.2929L377.828 45.4645C378.024 45.2692 378.34 45.2692 378.536 45.4645C378.731 45.6597 378.731 45.9763 378.536 46.1716L375.354 49.3536ZM375 33L375.5 33L375.5 34L375 34L374.5 34L374.5 33L375 33ZM375 36L375.5 36L375.5 38L375 38L374.5 38L374.5 36L375 36ZM375 40L375.5 40L375.5 42L375 42L374.5 42L374.5 40L375 40ZM375 44L375.5 44L375.5 46L375 46L374.5 46L374.5 44L375 44ZM375 48L375.5 48L375.5 49L375 49L374.5 49L374.5 48L375 48Z" fill="black"/>
<path d="M435.354 47.3536C435.158 47.5488 434.842 47.5488 434.646 47.3536L431.464 44.1716C431.269 43.9763 431.269 43.6597 431.464 43.4645C431.66 43.2692 431.976 43.2692 432.172 43.4645L435 46.2929L437.828 43.4645C438.024 43.2692 438.34 43.2692 438.536 43.4645C438.731 43.6597 438.731 43.9763 438.536 44.1716L435.354 47.3536ZM435 34L435.5 34L435.5 35.0833L435 35.0833L434.5 35.0833L434.5 34L435 34ZM435 37.25L435.5 37.25L435.5 39.4167L435 39.4167L434.5 39.4167L434.5 37.25L435 37.25ZM435 41.5833L435.5 41.5833L435.5 43.75L435 43.75L434.5 43.75L434.5 41.5833L435 41.5833ZM435 45.9167L435.5 45.9167L435.5 47L435 47L434.5 47L434.5 45.9167L435 45.9167ZM435.354 47.3536C435.158 47.5488 434.842 47.5488 434.646 47.3536L431.464 44.1716C431.269 43.9763 431.269 43.6597 431.464 43.4645C431.66 43.2692 431.976 43.2692 432.172 43.4645L435 46.2929L437.828 43.4645C438.024 43.2692 438.34 43.2692 438.536 43.4645C438.731 43.6597 438.731 43.9763 438.536 44.1716L435.354 47.3536ZM435 34L435.5 34L435.5 35.0833L435 35.0833L434.5 35.0833L434.5 34L435 34ZM435 37.25L435.5 37.25L435.5 39.4167L435 39.4167L434.5 39.4167L434.5 37.25L435 37.25ZM435 41.5833L435.5 41.5833L435.5 43.75L435 43.75L434.5 43.75L434.5 41.5833L435 41.5833ZM435 45.9167L435.5 45.9167L435.5 47L435 47L434.5 47L434.5 45.9167L435 45.9167Z" fill="black" fill-opacity="0.3"/>
<circle cx="430.5" cy="74.5" r="9.5" fill="#8BA02C" fill-opacity="0.2"/>
<circle cx="430.5" cy="146.5" r="9.5" fill="#8BA02C" fill-opacity="0.2"/>
<circle cx="430.5" cy="110.5" r="9.5" fill="#8BA02C" fill-opacity="0.4"/>
</svg>
