<svg width="548" height="354" viewBox="0 0 548 354" fill="none" xmlns="http://www.w3.org/2000/svg">
<circle cx="279" cy="183" r="50.5" fill="#FF6542" fill-opacity="0.1" stroke="#FF6542" stroke-width="3"/>
<text fill="#2F2A53" style="white-space: pre" xml:space="preserve" font-family="Inter" font-size="12" font-weight="600" letter-spacing="0em"><tspan x="249.387" y="182.364">Developer&#10;</tspan><tspan x="253.904" y="198.364">Decision</tspan></text>
<rect x="57" y="28" width="86" height="48" rx="12" fill="#8BA02C" fill-opacity="0.35"/>
<text fill="#2F2A53" style="white-space: pre" xml:space="preserve" font-family="Inter" font-size="12" font-weight="500" letter-spacing="0em"><tspan x="76.3809" y="48.3636">Browser&#10;</tspan><tspan x="73.2988" y="64.3636">Research</tspan></text>
<path d="M65 154C65 147.373 70.3726 142 77 142H131C137.627 142 143 147.373 143 154V178C143 184.627 137.627 190 131 190H77C70.3726 190 65 184.627 65 178V154Z" fill="#8BA02C" fill-opacity="0.35"/>
<text fill="#2F2A53" style="white-space: pre" xml:space="preserve" font-family="Inter" font-size="12" font-weight="500" letter-spacing="0em"><tspan x="94.4375" y="162.364">IDE&#10;</tspan><tspan x="81.207" y="178.364">Context</tspan></text>
<path d="M12 275C12 268.373 17.3726 263 24 263H110C116.627 263 122 268.373 122 275V299C122 305.627 116.627 311 110 311H24C17.3726 311 12 305.627 12 299V275Z" fill="#8BA02C" fill-opacity="0.35"/>
<text fill="#2F2A53" style="white-space: pre" xml:space="preserve" font-family="Inter" font-size="12" font-weight="500" letter-spacing="0em"><tspan x="35.8633" y="283.364">Comments&#10;</tspan><tspan x="28.3809" y="299.364">&#38; PR Reviews</tspan></text>
<path d="M211 25C211 18.3726 216.373 13 223 13H285C291.627 13 297 18.3726 297 25V49C297 55.6274 291.627 61 285 61H223C216.373 61 211 55.6274 211 49V25Z" fill="#8BA02C" fill-opacity="0.35"/>
<text fill="#2F2A53" style="white-space: pre" xml:space="preserve" font-family="Inter" font-size="12" font-weight="500" letter-spacing="0em"><tspan x="248.182" y="33.3636">AI&#10;</tspan><tspan x="227.211" y="49.3636">Assistant</tspan></text>
<path d="M390 52C390 45.3726 395.373 40 402 40H498C504.627 40 510 45.3726 510 52V76C510 82.6274 504.627 88 498 88H402C395.373 88 390 82.6274 390 76V52Z" fill="#8BA02C" fill-opacity="0.35"/>
<text fill="#2F2A53" style="white-space: pre" xml:space="preserve" font-family="Inter" font-size="12" font-weight="500" letter-spacing="0em"><tspan x="427.605" y="60.3636">AppSec&#10;</tspan><tspan x="406.096" y="76.3636">Documentation</tspan></text>
<path d="M429 163C429 156.373 434.373 151 441 151H524C530.627 151 536 156.373 536 163V187C536 193.627 530.627 199 524 199H441C434.373 199 429 193.627 429 187V163Z" fill="#8BA02C" fill-opacity="0.35"/>
<text fill="#2F2A53" style="white-space: pre" xml:space="preserve" font-family="Inter" font-size="12" font-weight="500" letter-spacing="0em"><tspan x="463.059" y="171.364">Alert &#38;&#10;</tspan><tspan x="445.141" y="187.364">Ticket Triage</tspan></text>
<path d="M223 305C223 298.373 228.373 293 235 293H317C323.627 293 329 298.373 329 305V329C329 335.627 323.627 341 317 341H235C228.373 341 223 335.627 223 329V305Z" fill="#8BA02C" fill-opacity="0.35"/>
<text fill="#2F2A53" style="white-space: pre" xml:space="preserve" font-family="Inter" font-size="12" font-weight="500" letter-spacing="0em"><tspan x="251.18" y="313.364">CI Policy&#10;</tspan><tspan x="239.344" y="329.364">Enforcement</tspan></text>
<path d="M407 283C407 276.373 412.373 271 419 271H499C505.627 271 511 276.373 511 283V307C511 313.627 505.627 319 499 319H419C412.373 319 407 313.627 407 307V283Z" fill="#8BA02C" fill-opacity="0.35"/>
<text fill="#2F2A53" style="white-space: pre" xml:space="preserve" font-family="Inter" font-size="12" font-weight="500" letter-spacing="0em"><tspan x="423.07" y="291.364">Vulnerability&#10;</tspan><tspan x="428.836" y="307.364">Advisories</tspan></text>
<path d="M157.939 74.0019C157.387 74.0358 156.968 74.5102 157.002 75.0614L157.555 84.0444C157.589 84.5957 158.063 85.015 158.614 84.9811C159.165 84.9472 159.585 84.4728 159.551 83.9216L159.06 75.9367L167.044 75.4453C167.596 75.4114 168.015 74.937 167.981 74.3858C167.947 73.8345 167.473 73.4152 166.922 73.4491L157.939 74.0019ZM227 136L227.662 135.251L158.662 74.2508L158 75L157.338 75.7492L226.338 136.749L227 136Z" fill="black"/>
<path d="M390.079 277.997C390.63 277.953 391.041 277.471 390.997 276.921L390.282 267.949C390.238 267.398 389.757 266.988 389.206 267.032C388.656 267.075 388.245 267.557 388.289 268.108L388.924 276.083L380.949 276.718C380.398 276.762 379.988 277.243 380.032 277.794C380.075 278.344 380.557 278.755 381.108 278.711L390.079 277.997ZM329 225L328.351 225.761L389.351 277.761L390 277L390.649 276.239L329.649 224.239L329 225Z" fill="black"/>
<path d="M138.012 283.845C137.927 284.391 138.3 284.903 138.845 284.988L147.737 286.379C148.283 286.465 148.794 286.091 148.88 285.546C148.965 285 148.592 284.489 148.046 284.403L140.143 283.167L141.379 275.263C141.465 274.717 141.091 274.206 140.546 274.12C140 274.035 139.489 274.408 139.403 274.954L138.012 283.845ZM224 222L223.411 221.192L138.411 283.192L139 284L139.589 284.808L224.589 222.808L224 222Z" fill="black"/>
<path d="M376.993 99.1182C377.058 98.5698 376.667 98.0723 376.118 98.007L367.181 96.9431C366.633 96.8778 366.135 97.2695 366.07 97.8179C366.005 98.3663 366.396 98.8638 366.945 98.9291L374.889 99.8748L373.943 107.819C373.878 108.367 374.269 108.865 374.818 108.93C375.366 108.995 375.864 108.604 375.929 108.055L376.993 99.1182ZM329 136L329.619 136.786L376.619 99.7857L376 99L375.381 98.2143L328.381 135.214L329 136Z" fill="black"/>
<path d="M157.388 170.209C156.951 170.547 156.871 171.175 157.209 171.612L162.719 178.729C163.057 179.165 163.685 179.245 164.122 178.907C164.558 178.569 164.638 177.941 164.3 177.504L159.403 171.179L165.729 166.281C166.165 165.943 166.245 165.315 165.907 164.878C165.569 164.442 164.941 164.362 164.504 164.7L157.388 170.209ZM213 178L213.126 177.008L158.126 170.008L158 171L157.874 171.992L212.874 178.992L213 178Z" fill="black"/>
<path d="M414.738 175.675C415.111 175.268 415.083 174.635 414.675 174.262L408.037 168.185C407.63 167.812 406.997 167.84 406.624 168.247C406.251 168.655 406.279 169.287 406.686 169.66L412.587 175.062L407.185 180.963C406.812 181.37 406.84 182.003 407.247 182.376C407.655 182.749 408.287 182.721 408.66 182.314L414.738 175.675ZM346 178L346.044 178.999L414.044 175.999L414 175L413.956 174.001L345.956 177.001L346 178Z" fill="black"/>
<path d="M275.268 277.681C275.644 278.086 276.277 278.108 276.681 277.732L283.268 271.599C283.673 271.223 283.695 270.59 283.319 270.186C282.943 269.782 282.31 269.759 281.906 270.135L276.05 275.587L270.599 269.732C270.223 269.327 269.59 269.305 269.186 269.681C268.782 270.057 268.759 270.69 269.135 271.094L275.268 277.681ZM277 249L276.001 248.964L275.001 276.964L276 277L276.999 277.036L277.999 249.036L277 249Z" fill="black"/>
<path d="M255.459 74.1114C254.968 73.8581 254.365 74.0506 254.111 74.5414L249.984 82.5389C249.73 83.0297 249.923 83.6329 250.414 83.8862C250.904 84.1395 251.508 83.947 251.761 83.4562L255.43 76.3473L262.539 80.0164C263.03 80.2697 263.633 80.0772 263.886 79.5864C264.14 79.0957 263.947 78.4925 263.456 78.2392L255.459 74.1114ZM270 122L270.953 121.696L255.953 74.696L255 75L254.047 75.304L269.047 122.304L270 122Z" fill="black"/>
</svg>
