<svg width="491" height="329" viewBox="0 0 491 329" fill="none" xmlns="http://www.w3.org/2000/svg">
<circle cx="226" cy="184" r="50.5" fill="#FF6542" fill-opacity="0.1" stroke="#FF6542" stroke-width="3"/>
<text fill="#2F2A53" style="white-space: pre" xml:space="preserve" font-family="Inter" font-size="12" font-weight="600" letter-spacing="0em"><tspan x="201.174" y="183.364">package&#10;</tspan><tspan x="210.004" y="199.364">A.1.12</tspan></text>
<rect x="107" y="17" width="94" height="48" rx="12" fill="#8BA02C" fill-opacity="0.35"/>
<text fill="#2F2A53" style="white-space: pre" xml:space="preserve" font-family="Inter" font-size="12" font-weight="500" letter-spacing="0em"><tspan x="126.625" y="37.3636">Metadata&#10;</tspan><tspan x="123.49" y="53.3636">&#38; README</tspan></text>
<path d="M35 118C35 111.373 40.3726 106 47 106H105C111.627 106 117 111.373 117 118V126C117 132.627 111.627 138 105 138H47C40.3726 138 35 132.627 35 126V118Z" fill="#8BA02C" fill-opacity="0.35"/>
<text fill="#2F2A53" style="white-space: pre" xml:space="preserve" font-family="Inter" font-size="12" font-weight="500" letter-spacing="0em"><tspan x="51.1738" y="126.364">Versions</tspan></text>
<path d="M294 57C294 50.3726 299.373 45 306 45H396C402.627 45 408 50.3726 408 57V65C408 71.6274 402.627 77 396 77H306C299.373 77 294 71.6274 294 65V57Z" fill="#8BA02C" fill-opacity="0.35"/>
<text fill="#2F2A53" style="white-space: pre" xml:space="preserve" font-family="Inter" font-size="12" font-weight="500" letter-spacing="0em"><tspan x="310.236" y="65.3636">Vulnerabilities</tspan></text>
<text fill="#2F2A53" style="white-space: pre" xml:space="preserve" font-family="Inter" font-size="11" letter-spacing="0em"><tspan x="323.35" y="130">Components</tspan></text>
<text fill="#2F2A53" style="white-space: pre" xml:space="preserve" font-family="Inter" font-size="11" letter-spacing="0em"><tspan x="230.009" y="302">Vulnerabilities</tspan></text>
<text fill="#2F2A53" style="white-space: pre" xml:space="preserve" font-family="Inter" font-size="11" letter-spacing="0em"><tspan x="13.0088" y="194">Vulnerabilities</tspan></text>
<text fill="#2F2A53" style="white-space: pre" xml:space="preserve" font-family="Inter" font-size="11" letter-spacing="0em"><tspan x="424.419" y="124">Advisories</tspan></text>
<text fill="#2F2A53" style="white-space: pre" xml:space="preserve" font-family="Inter" font-size="11" letter-spacing="0em"><tspan x="387.196" y="302">Metadata</tspan></text>
<text fill="#2F2A53" style="white-space: pre" xml:space="preserve" font-family="Inter" font-size="11" letter-spacing="0em"><tspan x="387.264" y="201">Versions</tspan></text>
<path d="M291 239C291 232.373 296.373 227 303 227H381C387.627 227 393 232.373 393 239V247C393 253.627 387.627 259 381 259H303C296.373 259 291 253.627 291 247V239Z" fill="#8BA02C" fill-opacity="0.35"/>
<text fill="#2F2A53" style="white-space: pre" xml:space="preserve" font-family="Inter" font-size="12" font-weight="500" letter-spacing="0em"><tspan x="307.078" y="247.364">Dependents</tspan></text>
<path d="M24 263C24 256.373 29.3726 251 36 251H127C133.627 251 139 256.373 139 263V271C139 277.627 133.627 283 127 283H36C29.3726 283 24 277.627 24 271V263Z" fill="#8BA02C" fill-opacity="0.35"/>
<text fill="#2F2A53" style="white-space: pre" xml:space="preserve" font-family="Inter" font-size="12" font-weight="500" letter-spacing="0em"><tspan x="40.3379" y="271.364">Dependencies</tspan></text>
<path d="M174.278 76.0394C173.748 75.8859 173.193 76.1914 173.039 76.7219L170.537 85.367C170.383 85.8975 170.689 86.4521 171.219 86.6056C171.75 86.7592 172.304 86.4536 172.458 85.9231L174.683 78.2386L182.367 80.4631C182.898 80.6167 183.452 80.3111 183.606 79.7806C183.759 79.2501 183.454 78.6955 182.923 78.542L174.278 76.0394ZM201 126L201.876 125.517L174.876 76.5174L174 77L173.124 77.4826L200.124 126.483L201 126Z" fill="black"/>
<path d="M153.012 262.844C152.926 263.39 153.299 263.902 153.844 263.988L162.734 265.391C163.279 265.478 163.791 265.105 163.878 264.56C163.964 264.014 163.591 263.502 163.046 263.416L155.144 262.168L156.391 254.266C156.478 253.721 156.105 253.209 155.56 253.122C155.014 253.036 154.502 253.409 154.416 253.954L153.012 262.844ZM187 239L186.412 238.191L153.412 262.191L154 263L154.588 263.809L187.588 239.809L187 239Z" fill="black"/>
<path d="M307.997 100.926C307.956 100.375 307.476 99.9617 306.926 100.003L297.951 100.673C297.4 100.714 296.987 101.193 297.028 101.744C297.069 102.295 297.549 102.708 298.099 102.667L306.077 102.072L306.673 110.049C306.714 110.6 307.193 111.013 307.744 110.972C308.295 110.931 308.708 110.451 308.667 109.901L307.997 100.926ZM276 137L276.758 137.653L307.758 101.653L307 101L306.242 100.347L275.242 136.347L276 137Z" fill="black"/>
<path d="M418 110.5C418.276 110.5 418.5 110.276 418.5 110L418.5 105.5C418.5 105.224 418.276 105 418 105C417.724 105 417.5 105.224 417.5 105.5L417.5 109.5L413.5 109.5C413.224 109.5 413 109.724 413 110C413 110.276 413.224 110.5 413.5 110.5L418 110.5ZM399 91L398.646 91.3536L399.325 92.0321L399.679 91.6786L400.032 91.325L399.354 90.6464L399 91ZM401.036 93.0357L400.682 93.3893L402.039 94.7464L402.393 94.3929L402.746 94.0393L401.389 92.6822L401.036 93.0357ZM403.75 95.75L403.396 96.1036L404.754 97.4607L405.107 97.1071L405.461 96.7536L404.104 95.3964L403.75 95.75ZM406.464 98.4643L406.111 98.8178L407.468 100.175L407.821 99.8214L408.175 99.4679L406.818 98.1107L406.464 98.4643ZM409.179 101.179L408.825 101.532L410.182 102.889L410.536 102.536L410.889 102.182L409.532 100.825L409.179 101.179ZM411.893 103.893L411.539 104.246L412.896 105.604L413.25 105.25L413.604 104.896L412.246 103.539L411.893 103.893ZM414.607 106.607L414.254 106.961L415.611 108.318L415.964 107.964L416.318 107.611L414.961 106.254L414.607 106.607ZM417.321 109.321L416.968 109.675L417.646 110.354L418 110L418.354 109.646L417.675 108.968L417.321 109.321ZM418 110.5C418.276 110.5 418.5 110.276 418.5 110L418.5 105.5C418.5 105.224 418.276 105 418 105C417.724 105 417.5 105.224 417.5 105.5L417.5 109.5L413.5 109.5C413.224 109.5 413 109.724 413 110C413 110.276 413.224 110.5 413.5 110.5L418 110.5ZM399 91L398.646 91.3536L399.325 92.0321L399.679 91.6786L400.032 91.325L399.354 90.6464L399 91ZM401.036 93.0357L400.682 93.3893L402.039 94.7464L402.393 94.3929L402.746 94.0393L401.389 92.6822L401.036 93.0357ZM403.75 95.75L403.396 96.1036L404.754 97.4607L405.107 97.1071L405.461 96.7536L404.104 95.3964L403.75 95.75ZM406.464 98.4643L406.111 98.8178L407.468 100.175L407.821 99.8214L408.175 99.4679L406.818 98.1107L406.464 98.4643ZM409.179 101.179L408.825 101.532L410.182 102.889L410.536 102.536L410.889 102.182L409.532 100.825L409.179 101.179ZM411.893 103.893L411.539 104.246L412.896 105.604L413.25 105.25L413.604 104.896L412.246 103.539L411.893 103.893ZM414.607 106.607L414.254 106.961L415.611 108.318L415.964 107.964L416.318 107.611L414.961 106.254L414.607 106.607ZM417.321 109.321L416.968 109.675L417.646 110.354L418 110L418.354 109.646L417.675 108.968L417.321 109.321Z" fill="black"/>
<path d="M368 110.5C367.724 110.5 367.5 110.276 367.5 110L367.5 105.5C367.5 105.224 367.724 105 368 105C368.276 105 368.5 105.224 368.5 105.5L368.5 109.5L372.5 109.5C372.776 109.5 373 109.724 373 110C373 110.276 372.776 110.5 372.5 110.5L368 110.5ZM387 91L387.354 91.3536L386.675 92.0321L386.321 91.6786L385.968 91.325L386.646 90.6464L387 91ZM384.964 93.0357L385.318 93.3893L383.961 94.7464L383.607 94.3929L383.254 94.0393L384.611 92.6822L384.964 93.0357ZM382.25 95.75L382.604 96.1036L381.246 97.4607L380.893 97.1071L380.539 96.7536L381.896 95.3964L382.25 95.75ZM379.536 98.4643L379.889 98.8178L378.532 100.175L378.179 99.8214L377.825 99.4679L379.182 98.1107L379.536 98.4643ZM376.821 101.179L377.175 101.532L375.818 102.889L375.464 102.536L375.111 102.182L376.468 100.825L376.821 101.179ZM374.107 103.893L374.461 104.246L373.104 105.604L372.75 105.25L372.396 104.896L373.754 103.539L374.107 103.893ZM371.393 106.607L371.746 106.961L370.389 108.318L370.036 107.964L369.682 107.611L371.039 106.254L371.393 106.607ZM368.679 109.321L369.032 109.675L368.354 110.354L368 110L367.646 109.646L368.325 108.968L368.679 109.321ZM368 110.5C367.724 110.5 367.5 110.276 367.5 110L367.5 105.5C367.5 105.224 367.724 105 368 105C368.276 105 368.5 105.224 368.5 105.5L368.5 109.5L372.5 109.5C372.776 109.5 373 109.724 373 110C373 110.276 372.776 110.5 372.5 110.5L368 110.5ZM387 91L387.354 91.3536L386.675 92.0321L386.321 91.6786L385.968 91.325L386.646 90.6464L387 91ZM384.964 93.0357L385.318 93.3893L383.961 94.7464L383.607 94.3929L383.254 94.0393L384.611 92.6822L384.964 93.0357ZM382.25 95.75L382.604 96.1036L381.246 97.4607L380.893 97.1071L380.539 96.7536L381.896 95.3964L382.25 95.75ZM379.536 98.4643L379.889 98.8178L378.532 100.175L378.179 99.8214L377.825 99.4679L379.182 98.1107L379.536 98.4643ZM376.821 101.179L377.175 101.532L375.818 102.889L375.464 102.536L375.111 102.182L376.468 100.825L376.821 101.179ZM374.107 103.893L374.461 104.246L373.104 105.604L372.75 105.25L372.396 104.896L373.754 103.539L374.107 103.893ZM371.393 106.607L371.746 106.961L370.389 108.318L370.036 107.964L369.682 107.611L371.039 106.254L371.393 106.607ZM368.679 109.321L369.032 109.675L368.354 110.354L368 110L367.646 109.646L368.325 108.968L368.679 109.321Z" fill="black"/>
<path d="M372 286.5C372.276 286.5 372.5 286.276 372.5 286L372.5 281.5C372.5 281.224 372.276 281 372 281C371.724 281 371.5 281.224 371.5 281.5L371.5 285.5L367.5 285.5C367.224 285.5 367 285.724 367 286C367 286.276 367.224 286.5 367.5 286.5L372 286.5ZM353 267L352.646 267.354L353.325 268.032L353.679 267.679L354.032 267.325L353.354 266.646L353 267ZM355.036 269.036L354.682 269.389L356.039 270.746L356.393 270.393L356.746 270.039L355.389 268.682L355.036 269.036ZM357.75 271.75L357.396 272.104L358.754 273.461L359.107 273.107L359.461 272.754L358.104 271.396L357.75 271.75ZM360.464 274.464L360.111 274.818L361.468 276.175L361.821 275.821L362.175 275.468L360.818 274.111L360.464 274.464ZM363.179 277.179L362.825 277.532L364.182 278.889L364.536 278.536L364.889 278.182L363.532 276.825L363.179 277.179ZM365.893 279.893L365.539 280.246L366.896 281.604L367.25 281.25L367.604 280.896L366.246 279.539L365.893 279.893ZM368.607 282.607L368.254 282.961L369.611 284.318L369.964 283.964L370.318 283.611L368.961 282.254L368.607 282.607ZM371.321 285.321L370.968 285.675L371.646 286.354L372 286L372.354 285.646L371.675 284.968L371.321 285.321ZM372 286.5C372.276 286.5 372.5 286.276 372.5 286L372.5 281.5C372.5 281.224 372.276 281 372 281C371.724 281 371.5 281.224 371.5 281.5L371.5 285.5L367.5 285.5C367.224 285.5 367 285.724 367 286C367 286.276 367.224 286.5 367.5 286.5L372 286.5ZM353 267L352.646 267.354L353.325 268.032L353.679 267.679L354.032 267.325L353.354 266.646L353 267ZM355.036 269.036L354.682 269.389L356.039 270.746L356.393 270.393L356.746 270.039L355.389 268.682L355.036 269.036ZM357.75 271.75L357.396 272.104L358.754 273.461L359.107 273.107L359.461 272.754L358.104 271.396L357.75 271.75ZM360.464 274.464L360.111 274.818L361.468 276.175L361.821 275.821L362.175 275.468L360.818 274.111L360.464 274.464ZM363.179 277.179L362.825 277.532L364.182 278.889L364.536 278.536L364.889 278.182L363.532 276.825L363.179 277.179ZM365.893 279.893L365.539 280.246L366.896 281.604L367.25 281.25L367.604 280.896L366.246 279.539L365.893 279.893ZM368.607 282.607L368.254 282.961L369.611 284.318L369.964 283.964L370.318 283.611L368.961 282.254L368.607 282.607ZM371.321 285.321L370.968 285.675L371.646 286.354L372 286L372.354 285.646L371.675 284.968L371.321 285.321Z" fill="black"/>
<path d="M372 198.5C372.276 198.5 372.5 198.724 372.5 199L372.5 203.5C372.5 203.776 372.276 204 372 204C371.724 204 371.5 203.776 371.5 203.5L371.5 199.5L367.5 199.5C367.224 199.5 367 199.276 367 199C367 198.724 367.224 198.5 367.5 198.5L372 198.5ZM353 218L352.646 217.646L353.325 216.968L353.679 217.321L354.032 217.675L353.354 218.354L353 218ZM355.036 215.964L354.682 215.611L356.039 214.254L356.393 214.607L356.746 214.961L355.389 216.318L355.036 215.964ZM357.75 213.25L357.396 212.896L358.754 211.539L359.107 211.893L359.461 212.246L358.104 213.604L357.75 213.25ZM360.464 210.536L360.111 210.182L361.468 208.825L361.821 209.179L362.175 209.532L360.818 210.889L360.464 210.536ZM363.179 207.821L362.825 207.468L364.182 206.111L364.536 206.464L364.889 206.818L363.532 208.175L363.179 207.821ZM365.893 205.107L365.539 204.754L366.896 203.396L367.25 203.75L367.604 204.104L366.246 205.461L365.893 205.107ZM368.607 202.393L368.254 202.039L369.611 200.682L369.964 201.036L370.318 201.389L368.961 202.746L368.607 202.393ZM371.321 199.679L370.968 199.325L371.646 198.646L372 199L372.354 199.354L371.675 200.032L371.321 199.679ZM372 198.5C372.276 198.5 372.5 198.724 372.5 199L372.5 203.5C372.5 203.776 372.276 204 372 204C371.724 204 371.5 203.776 371.5 203.5L371.5 199.5L367.5 199.5C367.224 199.5 367 199.276 367 199C367 198.724 367.224 198.5 367.5 198.5L372 198.5ZM353 218L352.646 217.646L353.325 216.968L353.679 217.321L354.032 217.675L353.354 218.354L353 218ZM355.036 215.964L354.682 215.611L356.039 214.254L356.393 214.607L356.746 214.961L355.389 216.318L355.036 215.964ZM357.75 213.25L357.396 212.896L358.754 211.539L359.107 211.893L359.461 212.246L358.104 213.604L357.75 213.25ZM360.464 210.536L360.111 210.182L361.468 208.825L361.821 209.179L362.175 209.532L360.818 210.889L360.464 210.536ZM363.179 207.821L362.825 207.468L364.182 206.111L364.536 206.464L364.889 206.818L363.532 208.175L363.179 207.821ZM365.893 205.107L365.539 204.754L366.896 203.396L367.25 203.75L367.604 204.104L366.246 205.461L365.893 205.107ZM368.607 202.393L368.254 202.039L369.611 200.682L369.964 201.036L370.318 201.389L368.961 202.746L368.607 202.393ZM371.321 199.679L370.968 199.325L371.646 198.646L372 199L372.354 199.354L371.675 200.032L371.321 199.679Z" fill="black"/>
<path d="M311 286.5C310.724 286.5 310.5 286.276 310.5 286L310.5 281.5C310.5 281.224 310.724 281 311 281C311.276 281 311.5 281.224 311.5 281.5L311.5 285.5L315.5 285.5C315.776 285.5 316 285.724 316 286C316 286.276 315.776 286.5 315.5 286.5L311 286.5ZM330 267L330.354 267.354L329.675 268.032L329.321 267.679L328.968 267.325L329.646 266.646L330 267ZM327.964 269.036L328.318 269.389L326.961 270.746L326.607 270.393L326.254 270.039L327.611 268.682L327.964 269.036ZM325.25 271.75L325.604 272.104L324.246 273.461L323.893 273.107L323.539 272.754L324.896 271.396L325.25 271.75ZM322.536 274.464L322.889 274.818L321.532 276.175L321.179 275.821L320.825 275.468L322.182 274.111L322.536 274.464ZM319.821 277.179L320.175 277.532L318.818 278.889L318.464 278.536L318.111 278.182L319.468 276.825L319.821 277.179ZM317.107 279.893L317.461 280.246L316.104 281.604L315.75 281.25L315.396 280.896L316.754 279.539L317.107 279.893ZM314.393 282.607L314.746 282.961L313.389 284.318L313.036 283.964L312.682 283.611L314.039 282.254L314.393 282.607ZM311.679 285.321L312.032 285.675L311.354 286.354L311 286L310.646 285.646L311.325 284.968L311.679 285.321ZM311 286.5C310.724 286.5 310.5 286.276 310.5 286L310.5 281.5C310.5 281.224 310.724 281 311 281C311.276 281 311.5 281.224 311.5 281.5L311.5 285.5L315.5 285.5C315.776 285.5 316 285.724 316 286C316 286.276 315.776 286.5 315.5 286.5L311 286.5ZM330 267L330.354 267.354L329.675 268.032L329.321 267.679L328.968 267.325L329.646 266.646L330 267ZM327.964 269.036L328.318 269.389L326.961 270.746L326.607 270.393L326.254 270.039L327.611 268.682L327.964 269.036ZM325.25 271.75L325.604 272.104L324.246 273.461L323.893 273.107L323.539 272.754L324.896 271.396L325.25 271.75ZM322.536 274.464L322.889 274.818L321.532 276.175L321.179 275.821L320.825 275.468L322.182 274.111L322.536 274.464ZM319.821 277.179L320.175 277.532L318.818 278.889L318.464 278.536L318.111 278.182L319.468 276.825L319.821 277.179ZM317.107 279.893L317.461 280.246L316.104 281.604L315.75 281.25L315.396 280.896L316.754 279.539L317.107 279.893ZM314.393 282.607L314.746 282.961L313.389 284.318L313.036 283.964L312.682 283.611L314.039 282.254L314.393 282.607ZM311.679 285.321L312.032 285.675L311.354 286.354L311 286L310.646 285.646L311.325 284.968L311.679 285.321Z" fill="black"/>
<path d="M35 172.5C34.7239 172.5 34.5 172.276 34.5 172L34.5 167.5C34.5 167.224 34.7239 167 35 167C35.2761 167 35.5 167.224 35.5 167.5L35.5 171.5L39.5 171.5C39.7761 171.5 40 171.724 40 172C40 172.276 39.7761 172.5 39.5 172.5L35 172.5ZM54 153L54.3536 153.354L53.675 154.032L53.3214 153.679L52.9679 153.325L53.6464 152.646L54 153ZM51.9643 155.036L52.3178 155.389L50.9607 156.746L50.6071 156.393L50.2536 156.039L51.6107 154.682L51.9643 155.036ZM49.25 157.75L49.6036 158.104L48.2464 159.461L47.8929 159.107L47.5393 158.754L48.8964 157.396L49.25 157.75ZM46.5357 160.464L46.8893 160.818L45.5321 162.175L45.1786 161.821L44.825 161.468L46.1822 160.111L46.5357 160.464ZM43.8214 163.179L44.175 163.532L42.8178 164.889L42.4643 164.536L42.1107 164.182L43.4679 162.825L43.8214 163.179ZM41.1071 165.893L41.4607 166.246L40.1036 167.604L39.75 167.25L39.3964 166.896L40.7536 165.539L41.1071 165.893ZM38.3929 168.607L38.7464 168.961L37.3893 170.318L37.0357 169.964L36.6822 169.611L38.0393 168.254L38.3929 168.607ZM35.6786 171.321L36.0321 171.675L35.3536 172.354L35 172L34.6464 171.646L35.325 170.968L35.6786 171.321ZM35 172.5C34.7239 172.5 34.5 172.276 34.5 172L34.5 167.5C34.5 167.224 34.7239 167 35 167C35.2761 167 35.5 167.224 35.5 167.5L35.5 171.5L39.5 171.5C39.7761 171.5 40 171.724 40 172C40 172.276 39.7761 172.5 39.5 172.5L35 172.5ZM54 153L54.3536 153.354L53.675 154.032L53.3214 153.679L52.9679 153.325L53.6464 152.646L54 153ZM51.9643 155.036L52.3178 155.389L50.9607 156.746L50.6071 156.393L50.2536 156.039L51.6107 154.682L51.9643 155.036ZM49.25 157.75L49.6036 158.104L48.2464 159.461L47.8929 159.107L47.5393 158.754L48.8964 157.396L49.25 157.75ZM46.5357 160.464L46.8893 160.818L45.5321 162.175L45.1786 161.821L44.825 161.468L46.1822 160.111L46.5357 160.464ZM43.8214 163.179L44.175 163.532L42.8178 164.889L42.4643 164.536L42.1107 164.182L43.4679 162.825L43.8214 163.179ZM41.1071 165.893L41.4607 166.246L40.1036 167.604L39.75 167.25L39.3964 166.896L40.7536 165.539L41.1071 165.893ZM38.3929 168.607L38.7464 168.961L37.3893 170.318L37.0357 169.964L36.6822 169.611L38.0393 168.254L38.3929 168.607ZM35.6786 171.321L36.0321 171.675L35.3536 172.354L35 172L34.6464 171.646L35.325 170.968L35.6786 171.321Z" fill="black"/>
<path d="M116.692 152.049C116.167 152.219 115.879 152.782 116.049 153.308L118.819 161.871C118.989 162.396 119.553 162.684 120.078 162.514C120.604 162.344 120.892 161.781 120.722 161.255L118.259 153.644L125.871 151.181C126.396 151.011 126.684 150.447 126.514 149.922C126.344 149.396 125.781 149.108 125.255 149.278L116.692 152.049ZM162 176L162.455 175.11L117.455 152.11L117 153L116.545 153.89L161.545 176.89L162 176Z" fill="black"/>
<path d="M321.091 212.996C321.641 212.946 322.046 212.459 321.996 211.909L321.181 202.946C321.131 202.396 320.645 201.991 320.095 202.041C319.545 202.091 319.139 202.577 319.189 203.127L319.914 211.095L311.946 211.819C311.396 211.869 310.991 212.355 311.041 212.905C311.091 213.455 311.577 213.861 312.127 213.811L321.091 212.996ZM291 187L290.36 187.768L320.36 212.768L321 212L321.64 211.232L291.64 186.232L291 187Z" fill="black"/>
</svg>
