<svg width="491" height="223" viewBox="0 0 491 223" fill="none" xmlns="http://www.w3.org/2000/svg">
<path d="M32 173C32 166.373 37.3726 161 44 161H114C120.627 161 126 166.373 126 173V181C126 187.627 120.627 193 114 193H44C37.3726 193 32 187.627 32 181V173Z" fill="#8BA02C" fill-opacity="0.35"/>
<text fill="#2F2A53" style="white-space: pre" xml:space="preserve" font-family="Inter" font-size="12" font-weight="500" letter-spacing="0em"><tspan x="48.0156" y="181.364">1:1 Routing</tspan></text>
<rect x="32" y="39" width="106" height="32" rx="12" fill="#FF6542" fill-opacity="0.1"/>
<rect x="32" y="39" width="106" height="32" rx="12" stroke="#FF6542" stroke-width="2"/>
<text fill="#2F2A53" style="white-space: pre" xml:space="preserve" font-family="Inter" font-size="12" font-weight="600" letter-spacing="0em"><tspan x="48.2441" y="59.3636">Search Input</tspan></text>
<text fill="#2F2A53" style="white-space: pre" xml:space="preserve" font-family="Inter" font-size="11" letter-spacing="0em"><tspan x="384.35" y="99">Components</tspan></text>
<text fill="#2F2A53" style="white-space: pre" xml:space="preserve" font-family="Inter" font-size="11" letter-spacing="0em"><tspan x="384.009" y="135">Vulnerabilities</tspan></text>
<text fill="#2F2A53" style="white-space: pre" xml:space="preserve" font-family="Inter" font-size="11" letter-spacing="0em"><tspan x="384.362" y="171">Product Docs</tspan></text>
<path d="M332 51C332 44.3726 337.373 39 344 39H450C456.627 39 462 44.3726 462 51V59C462 65.6274 456.627 71 450 71H344C337.373 71 332 65.6274 332 59V51Z" fill="#8BA02C" fill-opacity="0.35"/>
<text fill="#2F2A53" style="white-space: pre" xml:space="preserve" font-family="Inter" font-size="12" font-weight="500" letter-spacing="0em"><tspan x="348.021" y="59.3636">Results List Page</tspan></text>
<path d="M186 127C186 120.373 191.373 115 198 115H311C317.627 115 323 120.373 323 127V135C323 141.627 317.627 147 311 147H198C191.373 147 186 141.627 186 135V127Z" fill="#8BA02C" fill-opacity="0.35"/>
<text fill="#2F2A53" style="white-space: pre" xml:space="preserve" font-family="Inter" font-size="12" font-weight="500" letter-spacing="0em"><tspan x="202.246" y="135.364">Results Dropdown</tspan></text>
<path d="M317.707 55.7071C318.098 55.3166 318.098 54.6834 317.707 54.2929L311.343 47.9289C310.953 47.5384 310.319 47.5384 309.929 47.9289C309.538 48.3195 309.538 48.9526 309.929 49.3431L315.586 55L309.929 60.6569C309.538 61.0474 309.538 61.6805 309.929 62.0711C310.319 62.4616 310.953 62.4616 311.343 62.0711L317.707 55.7071ZM170 55V56L317 56V55V54L170 54V55Z" fill="black"/>
<path d="M360 167.5L359.5 167.5L359.5 168L360 168L360 167.5ZM373.354 167.854C373.549 167.658 373.549 167.342 373.354 167.146L370.172 163.964C369.976 163.769 369.66 163.769 369.464 163.964C369.269 164.16 369.269 164.476 369.464 164.672L372.293 167.5L369.464 170.328C369.269 170.524 369.269 170.84 369.464 171.036C369.66 171.231 369.976 171.231 370.172 171.036L373.354 167.854ZM360 131L359.5 131V131L360 131ZM360 94.5L360.5 94.5V94.5L360 94.5ZM360 81L359.5 81L359.5 82.125L360 82.125L360.5 82.125L360.5 81L360 81ZM360 84.375L359.5 84.375L359.5 86.625L360 86.625L360.5 86.625L360.5 84.375L360 84.375ZM360 88.875L359.5 88.875L359.5 91.125L360 91.125L360.5 91.125L360.5 88.875L360 88.875ZM360 93.375L359.5 93.375L359.5 94.5L360 94.5L360.5 94.5L360.5 93.375L360 93.375ZM360 94.5L359.5 94.5L359.5 95.5139L360 95.5139L360.5 95.5139L360.5 94.5L360 94.5ZM360 97.5417L359.5 97.5417L359.5 99.5694L360 99.5694L360.5 99.5694L360.5 97.5417L360 97.5417ZM360 101.597L359.5 101.597L359.5 103.625L360 103.625L360.5 103.625L360.5 101.597L360 101.597ZM360 105.653L359.5 105.653L359.5 107.681L360 107.681L360.5 107.681L360.5 105.653L360 105.653ZM360 109.708L359.5 109.708L359.5 111.736L360 111.736L360.5 111.736L360.5 109.708L360 109.708ZM360 113.764L359.5 113.764L359.5 115.792L360 115.792L360.5 115.792L360.5 113.764L360 113.764ZM360 117.819L359.5 117.819L359.5 119.847L360 119.847L360.5 119.847L360.5 117.819L360 117.819ZM360 121.875L359.5 121.875L359.5 123.903L360 123.903L360.5 123.903L360.5 121.875L360 121.875ZM360 125.931L359.5 125.931L359.5 127.958L360 127.958L360.5 127.958L360.5 125.931L360 125.931ZM360 129.986L359.5 129.986L359.5 131L360 131L360.5 131L360.5 129.986L360 129.986ZM360 131L359.5 131L359.5 132.014L360 132.014L360.5 132.014L360.5 131L360 131ZM360 134.042L359.5 134.042L359.5 136.069L360 136.069L360.5 136.069L360.5 134.042L360 134.042ZM360 138.097L359.5 138.097L359.5 140.125L360 140.125L360.5 140.125L360.5 138.097L360 138.097ZM360 142.153L359.5 142.153L359.5 144.181L360 144.181L360.5 144.181L360.5 142.153L360 142.153ZM360 146.208L359.5 146.208L359.5 148.236L360 148.236L360.5 148.236L360.5 146.208L360 146.208ZM360 150.264L359.5 150.264L359.5 152.292L360 152.292L360.5 152.292L360.5 150.264L360 150.264ZM360 154.319L359.5 154.319L359.5 156.347L360 156.347L360.5 156.347L360.5 154.319L360 154.319ZM360 158.375L359.5 158.375L359.5 160.403L360 160.403L360.5 160.403L360.5 158.375L360 158.375ZM360 162.431L359.5 162.431L359.5 164.458L360 164.458L360.5 164.458L360.5 162.431L360 162.431ZM360 166.486L359.5 166.486L359.5 167.5L360 167.5L360.5 167.5L360.5 166.486L360 166.486ZM360 167.5L360 168L361.083 168L361.083 167.5L361.083 167L360 167L360 167.5ZM363.25 167.5L363.25 168L365.417 168L365.417 167.5L365.417 167L363.25 167L363.25 167.5ZM367.583 167.5L367.583 168L369.75 168L369.75 167.5L369.75 167L367.583 167L367.583 167.5ZM371.917 167.5L371.917 168L373 168L373 167.5L373 167L371.917 167L371.917 167.5ZM360 167.5L359.5 167.5L359.5 168L360 168L360 167.5ZM373.354 167.854C373.549 167.658 373.549 167.342 373.354 167.146L370.172 163.964C369.976 163.769 369.66 163.769 369.464 163.964C369.269 164.16 369.269 164.476 369.464 164.672L372.293 167.5L369.464 170.328C369.269 170.524 369.269 170.84 369.464 171.036C369.66 171.231 369.976 171.231 370.172 171.036L373.354 167.854ZM360 131L359.5 131V131L360 131ZM360 94.5L360.5 94.5V94.5L360 94.5ZM360 81L359.5 81L359.5 82.125L360 82.125L360.5 82.125L360.5 81L360 81ZM360 84.375L359.5 84.375L359.5 86.625L360 86.625L360.5 86.625L360.5 84.375L360 84.375ZM360 88.875L359.5 88.875L359.5 91.125L360 91.125L360.5 91.125L360.5 88.875L360 88.875ZM360 93.375L359.5 93.375L359.5 94.5L360 94.5L360.5 94.5L360.5 93.375L360 93.375ZM360 94.5L359.5 94.5L359.5 95.5139L360 95.5139L360.5 95.5139L360.5 94.5L360 94.5ZM360 97.5417L359.5 97.5417L359.5 99.5694L360 99.5694L360.5 99.5694L360.5 97.5417L360 97.5417ZM360 101.597L359.5 101.597L359.5 103.625L360 103.625L360.5 103.625L360.5 101.597L360 101.597ZM360 105.653L359.5 105.653L359.5 107.681L360 107.681L360.5 107.681L360.5 105.653L360 105.653ZM360 109.708L359.5 109.708L359.5 111.736L360 111.736L360.5 111.736L360.5 109.708L360 109.708ZM360 113.764L359.5 113.764L359.5 115.792L360 115.792L360.5 115.792L360.5 113.764L360 113.764ZM360 117.819L359.5 117.819L359.5 119.847L360 119.847L360.5 119.847L360.5 117.819L360 117.819ZM360 121.875L359.5 121.875L359.5 123.903L360 123.903L360.5 123.903L360.5 121.875L360 121.875ZM360 125.931L359.5 125.931L359.5 127.958L360 127.958L360.5 127.958L360.5 125.931L360 125.931ZM360 129.986L359.5 129.986L359.5 131L360 131L360.5 131L360.5 129.986L360 129.986ZM360 131L359.5 131L359.5 132.014L360 132.014L360.5 132.014L360.5 131L360 131ZM360 134.042L359.5 134.042L359.5 136.069L360 136.069L360.5 136.069L360.5 134.042L360 134.042ZM360 138.097L359.5 138.097L359.5 140.125L360 140.125L360.5 140.125L360.5 138.097L360 138.097ZM360 142.153L359.5 142.153L359.5 144.181L360 144.181L360.5 144.181L360.5 142.153L360 142.153ZM360 146.208L359.5 146.208L359.5 148.236L360 148.236L360.5 148.236L360.5 146.208L360 146.208ZM360 150.264L359.5 150.264L359.5 152.292L360 152.292L360.5 152.292L360.5 150.264L360 150.264ZM360 154.319L359.5 154.319L359.5 156.347L360 156.347L360.5 156.347L360.5 154.319L360 154.319ZM360 158.375L359.5 158.375L359.5 160.403L360 160.403L360.5 160.403L360.5 158.375L360 158.375ZM360 162.431L359.5 162.431L359.5 164.458L360 164.458L360.5 164.458L360.5 162.431L360 162.431ZM360 166.486L359.5 166.486L359.5 167.5L360 167.5L360.5 167.5L360.5 166.486L360 166.486ZM360 167.5L360 168L361.083 168L361.083 167.5L361.083 167L360 167L360 167.5ZM363.25 167.5L363.25 168L365.417 168L365.417 167.5L365.417 167L363.25 167L363.25 167.5ZM367.583 167.5L367.583 168L369.75 168L369.75 167.5L369.75 167L367.583 167L367.583 167.5ZM371.917 167.5L371.917 168L373 168L373 167.5L373 167L371.917 167L371.917 167.5Z" fill="black"/>
<path d="M68.2929 148.707C68.6834 149.098 69.3166 149.098 69.7071 148.707L76.0711 142.343C76.4616 141.953 76.4616 141.319 76.0711 140.929C75.6805 140.538 75.0474 140.538 74.6569 140.929L69 146.586L63.3431 140.929C62.9526 140.538 62.3195 140.538 61.9289 140.929C61.5384 141.319 61.5384 141.953 61.9289 142.343L68.2929 148.707ZM69 84L68 84L68 148L69 148L70 148L70 84L69 84Z" fill="black"/>
<path d="M129 131L128 131L128 132L129 132L129 131ZM173.707 131.707C174.098 131.317 174.098 130.683 173.707 130.293L167.343 123.929C166.953 123.538 166.319 123.538 165.929 123.929C165.538 124.319 165.538 124.953 165.929 125.343L171.586 131L165.929 136.657C165.538 137.047 165.538 137.681 165.929 138.071C166.319 138.462 166.953 138.462 167.343 138.071L173.707 131.707ZM129 84L128 84L128 131L129 131L130 131L130 84L129 84ZM129 131L129 132L173 132L173 131L173 130L129 130L129 131Z" fill="black"/>
<path d="M373.354 131.354C373.549 131.158 373.549 130.842 373.354 130.646L370.172 127.464C369.976 127.269 369.66 127.269 369.464 127.464C369.269 127.66 369.269 127.976 369.464 128.172L372.293 131L369.464 133.828C369.269 134.024 369.269 134.34 369.464 134.536C369.66 134.731 369.976 134.731 370.172 134.536L373.354 131.354ZM360 131V131.5H361.083V131V130.5H360V131ZM363.25 131V131.5H365.417V131V130.5H363.25V131ZM367.583 131V131.5H369.75V131V130.5H367.583V131ZM371.917 131V131.5H373V131V130.5H371.917V131ZM373.354 131.354C373.549 131.158 373.549 130.842 373.354 130.646L370.172 127.464C369.976 127.269 369.66 127.269 369.464 127.464C369.269 127.66 369.269 127.976 369.464 128.172L372.293 131L369.464 133.828C369.269 134.024 369.269 134.34 369.464 134.536C369.66 134.731 369.976 134.731 370.172 134.536L373.354 131.354ZM360 131V131.5H361.083V131V130.5H360V131ZM363.25 131V131.5H365.417V131V130.5H363.25V131ZM367.583 131V131.5H369.75V131V130.5H367.583V131ZM371.917 131V131.5H373V131V130.5H371.917V131Z" fill="black"/>
<path d="M373.354 95.3536C373.549 95.1583 373.549 94.8417 373.354 94.6464L370.172 91.4645C369.976 91.2692 369.66 91.2692 369.464 91.4645C369.269 91.6597 369.269 91.9763 369.464 92.1716L372.293 95L369.464 97.8284C369.269 98.0237 369.269 98.3403 369.464 98.5355C369.66 98.7308 369.976 98.7308 370.172 98.5355L373.354 95.3536ZM360 95V95.5H361.083V95V94.5H360V95ZM363.25 95V95.5H365.417V95V94.5H363.25V95ZM367.583 95V95.5H369.75V95V94.5H367.583V95ZM371.917 95V95.5H373V95V94.5H371.917V95ZM373.354 95.3536C373.549 95.1583 373.549 94.8417 373.354 94.6464L370.172 91.4645C369.976 91.2692 369.66 91.2692 369.464 91.4645C369.269 91.6597 369.269 91.9763 369.464 92.1716L372.293 95L369.464 97.8284C369.269 98.0237 369.269 98.3403 369.464 98.5355C369.66 98.7308 369.976 98.7308 370.172 98.5355L373.354 95.3536ZM360 95V95.5H361.083V95V94.5H360V95ZM363.25 95V95.5H365.417V95V94.5H363.25V95ZM367.583 95V95.5H369.75V95V94.5H367.583V95ZM371.917 95V95.5H373V95V94.5H371.917V95Z" fill="black"/>
</svg>
